<?xml version="1.0" encoding="utf-8"?>
<!-- Generator: Adobe Illustrator 25.3.0, SVG Export Plug-In . SVG Version: 6.00 Build 0)  -->
<svg version="1.1" id="Ebene_1" xmlns="http://www.w3.org/2000/svg" xmlns:xlink="http://www.w3.org/1999/xlink" x="0px" y="0px"
	 viewBox="0 0 380.81 486.09" style="enable-background:new 0 0 380.81 486.09;" xml:space="preserve">
<style type="text/css">
	.st0{clip-path:url(#SVGID_2_);fill:#FFFFFF;}
	.st1{clip-path:url(#SVGID_2_);fill:#223F65;}
</style>
<g>
	<defs>
		<rect id="SVGID_1_" x="20.3" y="25.91" width="340.22" height="434.27"/>
	</defs>
	<clipPath id="SVGID_2_">
		<use xlink:href="#SVGID_1_"  style="overflow:visible;"/>
	</clipPath>
	<path class="st0" d="M242.94,460.18c25.32,0,45.84-20.52,45.84-45.84s-20.52-45.84-45.84-45.84c-25.32,0-45.84,20.52-45.84,45.84
		S217.62,460.18,242.94,460.18"/>
	<path class="st1" d="M271,411.46v-2.85h-2.92v-4.26h-3.47v4.26h-2.1v2.85h2.1v9.4c0,1.57,0.31,2.78,0.93,3.62
		c0.62,0.84,1.64,1.26,3.06,1.26c0.44,0,0.87-0.04,1.31-0.13c0.44-0.09,0.79-0.2,1.05-0.33l-0.07-2.88
		c-0.15,0.09-0.33,0.15-0.54,0.2c-0.21,0.04-0.41,0.07-0.61,0.07c-0.57,0-0.99-0.21-1.26-0.62c-0.27-0.41-0.41-1.08-0.41-2v-8.58
		H271z M259.86,400.55h-3.7v24.77h3.7V400.55z M244.17,415.23c0-0.39,0.05-0.84,0.16-1.33c0.11-0.49,0.27-0.95,0.48-1.38
		c0.21-0.43,0.48-0.78,0.82-1.06c0.34-0.28,0.75-0.43,1.23-0.43c0.83,0,1.44,0.39,1.83,1.16c0.39,0.78,0.59,1.79,0.59,3.03H244.17z
		 M252.82,417.92v-1.41c0-1.2-0.11-2.31-0.33-3.34c-0.22-1.03-0.56-1.92-1.03-2.67c-0.47-0.75-1.08-1.35-1.84-1.79
		c-0.75-0.44-1.67-0.66-2.74-0.66c-0.96,0-1.83,0.21-2.6,0.64c-0.78,0.43-1.45,1.03-2.01,1.82c-0.57,0.79-1.01,1.73-1.31,2.83
		c-0.31,1.1-0.46,2.32-0.46,3.65c0,2.86,0.59,5.06,1.77,6.59c1.18,1.53,2.74,2.29,4.68,2.29c1.38,0,2.51-0.34,3.39-1.03
		c0.88-0.69,1.57-1.61,2.05-2.77l-2.72-1.57c-0.24,0.57-0.56,1.07-0.97,1.51c-0.4,0.44-0.95,0.66-1.62,0.66
		c-0.48,0-0.9-0.13-1.26-0.38c-0.36-0.25-0.67-0.59-0.92-1.02s-0.44-0.93-0.57-1.51c-0.13-0.58-0.2-1.2-0.2-1.85H252.82z
		 M239.25,402.13h-3.8l-2.98,18.02h-0.07l-3.21-18.02h-4.13l-3.11,18.02h-0.13l-2.98-18.02h-4l4.42,23.2h4.52l3.21-17.43h0.07
		l3.21,17.43h4.52L239.25,402.13z"/>
	<path class="st0" d="M271.56,356.54c45.6,0,82.57-36.97,82.57-82.57c0-45.6-36.97-82.57-82.57-82.57s-82.57,36.97-82.57,82.57
		C188.99,319.57,225.96,356.54,271.56,356.54"/>
	<path class="st1" d="M327.23,260.9h-3.7v24.74h3.7V260.9z M311.56,275.56c0-0.39,0.05-0.83,0.16-1.33
		c0.11-0.49,0.27-0.95,0.47-1.37c0.21-0.43,0.48-0.78,0.82-1.06c0.34-0.28,0.75-0.43,1.23-0.43c0.83,0,1.44,0.39,1.83,1.16
		c0.39,0.77,0.59,1.78,0.59,3.03H311.56z M320.2,278.24v-1.41c0-1.2-0.11-2.31-0.33-3.34c-0.22-1.02-0.56-1.91-1.03-2.67
		c-0.47-0.75-1.08-1.35-1.83-1.78c-0.75-0.44-1.66-0.65-2.73-0.65c-0.96,0-1.83,0.21-2.6,0.64c-0.77,0.43-1.45,1.03-2.01,1.82
		c-0.57,0.79-1,1.73-1.31,2.83c-0.31,1.1-0.46,2.32-0.46,3.65c0,2.86,0.59,5.05,1.77,6.58c1.18,1.53,2.74,2.29,4.68,2.29
		c1.37,0,2.5-0.34,3.39-1.03c0.88-0.69,1.57-1.61,2.04-2.76l-2.72-1.57c-0.24,0.57-0.56,1.07-0.96,1.51
		c-0.4,0.44-0.94,0.65-1.62,0.65c-0.48,0-0.9-0.13-1.26-0.38c-0.36-0.25-0.67-0.59-0.92-1.01c-0.25-0.43-0.44-0.93-0.57-1.51
		c-0.13-0.58-0.2-1.19-0.2-1.85H320.2z M305.8,270.32c-0.57-0.57-1.26-1.03-2.06-1.39c-0.81-0.36-1.71-0.54-2.72-0.54
		c-0.68,0-1.33,0.11-1.96,0.34c-0.63,0.23-1.19,0.57-1.67,1.01c-0.48,0.45-0.87,0.99-1.16,1.62c-0.29,0.63-0.44,1.35-0.44,2.16
		c0,0.76,0.1,1.41,0.31,1.95c0.21,0.54,0.49,0.99,0.83,1.36c0.35,0.37,0.73,0.67,1.14,0.88c0.41,0.22,0.84,0.4,1.28,0.56
		c0.85,0.31,1.53,0.63,2.04,0.98c0.51,0.35,0.77,0.92,0.77,1.7c0,0.68-0.17,1.22-0.52,1.64c-0.35,0.41-0.83,0.62-1.44,0.62
		c-0.7,0-1.31-0.16-1.83-0.49c-0.52-0.33-0.98-0.72-1.37-1.18l-2,2.36c0.63,0.7,1.4,1.26,2.31,1.67c0.91,0.41,1.88,0.62,2.93,0.62
		c0.7,0,1.37-0.11,2.01-0.33c0.64-0.22,1.22-0.56,1.72-1.01c0.5-0.46,0.9-1.03,1.19-1.72c0.29-0.69,0.44-1.49,0.44-2.4
		c0-0.76-0.11-1.42-0.34-1.98c-0.23-0.56-0.53-1.03-0.92-1.42c-0.38-0.39-0.81-0.71-1.28-0.96c-0.47-0.25-0.94-0.46-1.42-0.64
		c-0.85-0.31-1.47-0.61-1.86-0.9c-0.39-0.29-0.59-0.77-0.59-1.42c0-0.63,0.18-1.14,0.56-1.52c0.37-0.38,0.83-0.57,1.37-0.57
		c0.59,0,1.11,0.13,1.57,0.39c0.46,0.26,0.84,0.6,1.15,1.01L305.8,270.32z M293.86,270.32c-0.57-0.57-1.25-1.03-2.06-1.39
		c-0.81-0.36-1.71-0.54-2.72-0.54c-0.68,0-1.33,0.11-1.96,0.34c-0.63,0.23-1.19,0.57-1.67,1.01c-0.48,0.45-0.87,0.99-1.16,1.62
		c-0.29,0.63-0.44,1.35-0.44,2.16c0,0.76,0.1,1.41,0.31,1.95c0.21,0.54,0.49,0.99,0.83,1.36c0.35,0.37,0.73,0.67,1.15,0.88
		c0.41,0.22,0.84,0.4,1.28,0.56c0.85,0.31,1.53,0.63,2.04,0.98c0.51,0.35,0.77,0.92,0.77,1.7c0,0.68-0.18,1.22-0.52,1.64
		c-0.35,0.41-0.83,0.62-1.44,0.62c-0.7,0-1.31-0.16-1.83-0.49c-0.52-0.33-0.98-0.72-1.37-1.18l-2,2.36c0.63,0.7,1.4,1.26,2.31,1.67
		c0.9,0.41,1.88,0.62,2.93,0.62c0.7,0,1.37-0.11,2.01-0.33c0.64-0.22,1.22-0.56,1.72-1.01c0.5-0.46,0.9-1.03,1.19-1.72
		c0.29-0.69,0.44-1.49,0.44-2.4c0-0.76-0.12-1.42-0.34-1.98c-0.23-0.56-0.53-1.03-0.92-1.42c-0.38-0.39-0.81-0.71-1.28-0.96
		c-0.47-0.25-0.94-0.46-1.42-0.64c-0.85-0.31-1.47-0.61-1.86-0.9c-0.39-0.29-0.59-0.77-0.59-1.42c0-0.63,0.19-1.14,0.56-1.52
		c0.37-0.38,0.83-0.57,1.37-0.57c0.59,0,1.11,0.13,1.57,0.39c0.46,0.26,0.84,0.6,1.15,1.01L293.86,270.32z M280.28,285.63v-16.69
		h-3.7v9.65c0,1.27-0.25,2.31-0.74,3.12c-0.49,0.82-1.15,1.23-1.98,1.23c-0.44,0-0.79-0.1-1.06-0.31c-0.27-0.21-0.48-0.48-0.62-0.82
		c-0.14-0.34-0.23-0.71-0.28-1.13c-0.04-0.41-0.07-0.84-0.07-1.28v-10.47h-3.7v10.47c0,0.85,0.05,1.68,0.16,2.5
		c0.11,0.82,0.32,1.54,0.62,2.18c0.3,0.63,0.74,1.14,1.29,1.52c0.56,0.38,1.29,0.57,2.21,0.57c1.05,0,1.93-0.31,2.63-0.93
		c0.71-0.62,1.22-1.38,1.52-2.27h0.07v2.65H280.28z M278.22,262.63c-0.37-0.41-0.84-0.62-1.41-0.62c-0.57,0-1.03,0.21-1.39,0.62
		c-0.36,0.41-0.54,0.92-0.54,1.51c0,0.61,0.18,1.12,0.54,1.54c0.36,0.41,0.82,0.62,1.39,0.62c0.54,0,1.01-0.21,1.39-0.62
		c0.38-0.41,0.57-0.93,0.57-1.54C278.78,263.55,278.59,263.05,278.22,262.63 M273.08,262.63c-0.37-0.41-0.84-0.62-1.41-0.62
		s-1.03,0.21-1.39,0.62c-0.36,0.41-0.54,0.92-0.54,1.51c0,0.61,0.18,1.12,0.54,1.54c0.36,0.41,0.82,0.62,1.39,0.62
		s1.04-0.21,1.41-0.62c0.37-0.41,0.56-0.93,0.56-1.54C273.64,263.55,273.45,263.05,273.08,262.63 M263.79,260.9h-3.7v24.74h3.7
		V260.9z M255.77,285.63v-10.47c0-0.85-0.06-1.68-0.16-2.5c-0.11-0.82-0.32-1.54-0.62-2.18c-0.31-0.63-0.74-1.14-1.31-1.52
		c-0.57-0.38-1.31-0.57-2.23-0.57c-1.05,0-1.91,0.31-2.6,0.93s-1.17,1.36-1.46,2.21h-0.07V260.9h-3.7v24.74h3.7v-9.65
		c0-1.27,0.24-2.31,0.74-3.14c0.49-0.83,1.15-1.24,1.98-1.24c0.44,0,0.79,0.1,1.06,0.31c0.27,0.21,0.48,0.49,0.62,0.83
		c0.14,0.35,0.23,0.74,0.28,1.16c0.04,0.43,0.07,0.85,0.07,1.26v10.47H255.77z M241.35,284.65l-1.54-2.88
		c-0.24,0.31-0.52,0.55-0.85,0.72c-0.33,0.17-0.72,0.26-1.18,0.26c-0.98,0-1.71-0.5-2.19-1.51c-0.48-1-0.72-2.33-0.72-3.99
		c0-1.66,0.23-2.99,0.7-4.01c0.47-1.01,1.16-1.52,2.08-1.52c0.46,0,0.85,0.09,1.16,0.26c0.32,0.17,0.59,0.39,0.83,0.65l1.67-2.78
		c-0.37-0.37-0.88-0.71-1.52-1.01s-1.41-0.46-2.31-0.46c-1.03,0-1.93,0.21-2.71,0.64c-0.78,0.43-1.44,1.03-1.98,1.82
		c-0.54,0.79-0.95,1.72-1.22,2.81c-0.28,1.09-0.41,2.29-0.41,3.6s0.13,2.51,0.4,3.6c0.26,1.09,0.66,2.03,1.19,2.83
		c0.53,0.8,1.19,1.41,1.98,1.85s1.7,0.65,2.72,0.65c0.83,0,1.57-0.14,2.22-0.41C240.33,285.51,240.89,285.13,241.35,284.65
		 M228.85,264.14c-0.63-0.74-1.41-1.3-2.34-1.68c-0.93-0.38-1.98-0.57-3.16-0.57c-0.81,0-1.6,0.14-2.39,0.41
		c-0.79,0.27-1.49,0.69-2.11,1.26c-0.62,0.57-1.12,1.28-1.51,2.14c-0.38,0.86-0.57,1.89-0.57,3.09c0,0.96,0.13,1.78,0.38,2.47
		c0.25,0.69,0.59,1.29,1.01,1.8c0.43,0.51,0.92,0.95,1.47,1.32c0.56,0.37,1.15,0.71,1.78,1.01c1,0.5,1.83,1.05,2.49,1.64
		c0.65,0.59,0.98,1.38,0.98,2.39c0,1.03-0.27,1.82-0.82,2.39c-0.55,0.57-1.23,0.85-2.06,0.85c-0.74,0-1.47-0.17-2.18-0.52
		c-0.71-0.35-1.31-0.83-1.82-1.44l-2.13,2.88c0.65,0.76,1.53,1.4,2.62,1.9c1.09,0.5,2.28,0.75,3.57,0.75c0.89,0,1.74-0.15,2.55-0.46
		c0.81-0.31,1.51-0.76,2.11-1.36c0.6-0.6,1.08-1.34,1.44-2.21c0.36-0.87,0.54-1.88,0.54-3.01c0-0.98-0.15-1.83-0.46-2.55
		c-0.31-0.72-0.7-1.34-1.18-1.86c-0.48-0.52-1.01-0.97-1.6-1.34c-0.59-0.37-1.17-0.7-1.73-0.98c-0.96-0.48-1.73-0.99-2.32-1.52
		c-0.59-0.53-0.88-1.29-0.88-2.27c0-0.57,0.08-1.06,0.24-1.47c0.16-0.41,0.39-0.75,0.67-1.01c0.28-0.26,0.6-0.45,0.95-0.57
		c0.35-0.12,0.71-0.18,1.08-0.18c1.29,0,2.36,0.51,3.21,1.54L228.85,264.14z"/>
	<path class="st0" d="M117.74,201.36c48.99,0,88.7-39.28,88.7-87.73c0-48.45-39.71-87.73-88.7-87.73s-88.7,39.28-88.7,87.73
		C29.04,162.08,68.75,201.36,117.74,201.36"/>
	<path class="st0" d="M210.2,196.01c21.89,0,39.63-17.46,39.63-39c0-21.54-17.74-39-39.63-39c-21.89,0-39.63,17.46-39.63,39
		C170.57,178.55,188.31,196.01,210.2,196.01"/>
	<path class="st1" d="M225.56,153.35v-2.95h-3.07v-4.41h-3.66v4.41h-2.21v2.95h2.21v9.74c0,1.63,0.33,2.88,0.98,3.75
		c0.66,0.87,1.73,1.31,3.23,1.31c0.46,0,0.92-0.05,1.38-0.14c0.46-0.09,0.83-0.2,1.1-0.34l-0.07-2.99c-0.16,0.09-0.35,0.16-0.57,0.2
		c-0.22,0.05-0.43,0.07-0.64,0.07c-0.6,0-1.04-0.22-1.33-0.65c-0.29-0.43-0.43-1.12-0.43-2.07v-8.89H225.56z M215.31,151.83
		c-0.6-0.59-1.32-1.07-2.17-1.44c-0.85-0.37-1.81-0.56-2.86-0.56c-0.71,0-1.4,0.12-2.07,0.36c-0.67,0.24-1.25,0.59-1.76,1.05
		c-0.51,0.46-0.91,1.02-1.22,1.68c-0.31,0.66-0.47,1.4-0.47,2.24c0,0.79,0.11,1.47,0.33,2.02c0.22,0.55,0.51,1.02,0.88,1.41
		c0.37,0.39,0.77,0.69,1.21,0.92c0.44,0.23,0.89,0.42,1.35,0.58c0.9,0.32,1.62,0.66,2.16,1.02c0.54,0.36,0.81,0.95,0.81,1.77
		c0,0.7-0.18,1.27-0.55,1.7c-0.37,0.43-0.87,0.65-1.52,0.65c-0.74,0-1.38-0.17-1.93-0.51c-0.55-0.34-1.03-0.75-1.45-1.22l-2.1,2.44
		c0.67,0.72,1.48,1.3,2.43,1.73c0.95,0.43,1.98,0.64,3.09,0.64c0.74,0,1.44-0.11,2.12-0.34c0.68-0.23,1.28-0.58,1.81-1.05
		c0.53-0.48,0.95-1.07,1.26-1.78c0.31-0.71,0.47-1.54,0.47-2.5c0-0.79-0.12-1.48-0.36-2.05c-0.24-0.58-0.56-1.07-0.97-1.48
		s-0.85-0.74-1.35-1c-0.49-0.26-1-0.48-1.5-0.66c-0.9-0.32-1.55-0.63-1.97-0.93c-0.41-0.31-0.62-0.8-0.62-1.48
		c0-0.66,0.2-1.18,0.59-1.58c0.39-0.39,0.87-0.59,1.45-0.59c0.62,0,1.17,0.14,1.66,0.41c0.48,0.27,0.89,0.62,1.21,1.05
		L215.31,151.83z M201.1,150.4h-3.9v17.31h3.9V150.4z M200.77,143.68c-0.43-0.48-0.97-0.71-1.64-0.71c-0.67,0-1.21,0.24-1.64,0.71
		c-0.43,0.48-0.64,1.04-0.64,1.7c0,0.68,0.21,1.24,0.64,1.7c0.43,0.45,0.97,0.68,1.64,0.68c0.64,0,1.18-0.23,1.62-0.68
		c0.44-0.45,0.65-1.02,0.65-1.7C201.41,144.72,201.19,144.15,200.77,143.68"/>
	<path class="st1" d="M159.76,116.28c0-0.42,0.06-0.88,0.18-1.4c0.12-0.52,0.29-1,0.51-1.45c0.22-0.45,0.51-0.82,0.88-1.12
		c0.36-0.3,0.8-0.45,1.31-0.45c0.89,0,1.54,0.41,1.96,1.23c0.42,0.82,0.63,1.89,0.63,3.2H159.76z M169,119.12v-1.49
		c0-1.27-0.12-2.45-0.35-3.53c-0.23-1.08-0.6-2.03-1.1-2.82c-0.5-0.8-1.15-1.42-1.96-1.89c-0.8-0.46-1.78-0.69-2.92-0.69
		c-1.03,0-1.95,0.23-2.78,0.68c-0.83,0.45-1.55,1.09-2.15,1.92c-0.61,0.83-1.07,1.83-1.4,2.99c-0.33,1.17-0.49,2.45-0.49,3.86
		c0,3.02,0.63,5.34,1.89,6.96c1.26,1.62,2.93,2.42,5,2.42c1.47,0,2.68-0.36,3.62-1.09c0.95-0.73,1.67-1.7,2.19-2.93l-2.91-1.66
		c-0.26,0.6-0.6,1.13-1.03,1.59c-0.43,0.46-1.01,0.69-1.73,0.69c-0.51,0-0.96-0.13-1.35-0.4c-0.39-0.26-0.71-0.62-0.98-1.07
		c-0.27-0.45-0.47-0.98-0.61-1.59c-0.14-0.61-0.21-1.26-0.21-1.96H169z M152.27,126.95v-11.08c0-0.9-0.06-1.78-0.17-2.65
		c-0.12-0.87-0.34-1.63-0.67-2.3c-0.33-0.67-0.79-1.21-1.4-1.61c-0.61-0.4-1.4-0.61-2.38-0.61c-1.12,0-2.05,0.33-2.78,0.99
		c-0.74,0.66-1.25,1.44-1.56,2.34h-0.07v-11.25h-3.96v26.17h3.96v-10.21c0-1.34,0.26-2.45,0.79-3.32c0.53-0.88,1.23-1.32,2.12-1.32
		c0.47,0,0.85,0.11,1.14,0.33c0.29,0.22,0.51,0.51,0.67,0.88c0.15,0.37,0.25,0.78,0.3,1.23c0.05,0.45,0.07,0.9,0.07,1.33v11.08
		H152.27z M136.83,125.91l-1.65-3.05c-0.26,0.32-0.56,0.58-0.91,0.76s-0.77,0.28-1.26,0.28c-1.05,0-1.83-0.53-2.35-1.59
		c-0.51-1.06-0.77-2.47-0.77-4.22c0-1.75,0.25-3.17,0.75-4.24c0.5-1.07,1.24-1.61,2.22-1.61c0.49,0,0.9,0.09,1.24,0.28
		c0.34,0.19,0.64,0.42,0.89,0.69l1.79-2.94c-0.4-0.39-0.94-0.75-1.63-1.07c-0.69-0.32-1.51-0.49-2.47-0.49
		c-1.1,0-2.06,0.23-2.89,0.68c-0.83,0.45-1.54,1.09-2.11,1.92c-0.58,0.83-1.01,1.82-1.31,2.98c-0.29,1.15-0.44,2.42-0.44,3.81
		c0,1.38,0.14,2.65,0.42,3.81c0.28,1.15,0.71,2.15,1.27,2.99c0.57,0.84,1.27,1.49,2.11,1.96c0.85,0.46,1.82,0.69,2.91,0.69
		c0.89,0,1.68-0.14,2.38-0.43C135.75,126.81,136.34,126.42,136.83,125.91 M119.23,124.32v2.63h3.29v-10.49c0-1.22-0.1-2.32-0.3-3.29
		s-0.53-1.78-1-2.44s-1.08-1.16-1.84-1.51c-0.76-0.35-1.69-0.52-2.78-0.52c-0.98,0-1.97,0.23-2.97,0.68c-1,0.45-1.83,1.08-2.49,1.89
		l1.89,2.46c0.4-0.51,0.87-0.92,1.42-1.23c0.55-0.31,1.16-0.47,1.84-0.47c0.79,0,1.43,0.26,1.91,0.78c0.48,0.52,0.72,1.37,0.72,2.54
		v0.55h-0.98c-0.84,0-1.7,0.09-2.57,0.26c-0.88,0.17-1.67,0.49-2.38,0.95c-0.71,0.46-1.3,1.09-1.75,1.89
		c-0.45,0.8-0.68,1.82-0.68,3.06c0,0.97,0.14,1.79,0.42,2.47c0.28,0.68,0.64,1.24,1.07,1.66c0.43,0.43,0.92,0.73,1.45,0.92
		c0.54,0.18,1.06,0.28,1.58,0.28c1.12,0,2.02-0.27,2.7-0.81c0.68-0.54,1.14-1.3,1.4-2.27H119.23z M119.02,119.68
		c0,0.53-0.05,1.08-0.16,1.64c-0.11,0.57-0.27,1.08-0.49,1.54c-0.22,0.46-0.52,0.84-0.89,1.14c-0.37,0.3-0.83,0.45-1.37,0.45
		c-0.54,0-1.01-0.22-1.42-0.66c-0.41-0.44-0.61-1.12-0.61-2.04c0-0.62,0.1-1.14,0.32-1.54c0.21-0.4,0.49-0.72,0.84-0.95
		c0.35-0.23,0.75-0.39,1.21-0.47c0.46-0.08,0.93-0.12,1.42-0.12h1.16V119.68z M105.26,112.68h-0.07v-3.39h-3.89v17.65h4.03v-8.86
		c0-0.67,0.07-1.33,0.21-1.97c0.14-0.65,0.35-1.22,0.63-1.73c0.28-0.51,0.62-0.92,1.01-1.23c0.4-0.31,0.85-0.47,1.37-0.47
		c0.3,0,0.58,0.03,0.84,0.1l0.21-4.01c-0.12-0.05-0.22-0.07-0.3-0.07h-0.3c-0.89,0-1.66,0.34-2.31,1
		C106.04,110.38,105.56,111.37,105.26,112.68 M93.39,120.44c-0.12,0.74-0.29,1.38-0.53,1.92c-0.23,0.54-0.54,0.97-0.91,1.28
		c-0.37,0.31-0.82,0.47-1.33,0.47c-0.49,0-0.92-0.16-1.3-0.47c-0.37-0.31-0.68-0.74-0.93-1.28c-0.24-0.54-0.43-1.18-0.56-1.92
		c-0.13-0.74-0.19-1.52-0.19-2.35c0-0.83,0.06-1.62,0.19-2.35c0.13-0.74,0.32-1.37,0.56-1.9c0.24-0.53,0.55-0.95,0.93-1.26
		c0.37-0.31,0.81-0.47,1.3-0.47c0.51,0,0.96,0.16,1.33,0.47c0.37,0.31,0.68,0.73,0.91,1.26c0.23,0.53,0.41,1.17,0.53,1.9
		c0.12,0.74,0.18,1.52,0.18,2.35C93.57,118.92,93.51,119.7,93.39,120.44 M97.14,114.36c-0.26-1.14-0.63-2.14-1.12-2.98
		c-0.49-0.84-1.09-1.5-1.8-1.97c-0.71-0.47-1.53-0.71-2.47-0.71c-1.14,0-2.02,0.29-2.63,0.88c-0.61,0.59-1.06,1.32-1.37,2.2h-0.07
		v-2.49h-3.81v25.96h3.88v-10.63h0.07c0.26,0.81,0.72,1.49,1.38,2.06c0.67,0.56,1.51,0.85,2.54,0.85c0.93,0,1.76-0.24,2.48-0.71
		c0.72-0.47,1.33-1.14,1.82-1.99c0.49-0.85,0.86-1.85,1.1-2.99c0.24-1.14,0.37-2.39,0.37-3.76
		C97.52,116.75,97.4,115.51,97.14,114.36 M80.34,104.2c-0.68-0.78-1.51-1.38-2.5-1.78c-0.99-0.4-2.12-0.61-3.38-0.61
		c-0.86,0-1.72,0.14-2.56,0.43c-0.84,0.29-1.59,0.73-2.26,1.33c-0.66,0.6-1.2,1.36-1.61,2.27c-0.41,0.91-0.61,2-0.61,3.27
		c0,1.02,0.13,1.89,0.4,2.61c0.27,0.73,0.63,1.36,1.08,1.9c0.46,0.54,0.98,1.01,1.58,1.4c0.6,0.39,1.23,0.75,1.91,1.07
		c1.07,0.53,1.96,1.11,2.66,1.73c0.7,0.62,1.05,1.47,1.05,2.53c0,1.09-0.29,1.93-0.87,2.53c-0.58,0.6-1.32,0.9-2.2,0.9
		c-0.79,0-1.57-0.18-2.33-0.55c-0.76-0.37-1.41-0.88-1.94-1.52l-2.28,3.05c0.7,0.81,1.63,1.48,2.8,2.01c1.17,0.53,2.44,0.8,3.81,0.8
		c0.96,0,1.87-0.16,2.73-0.49c0.86-0.32,1.62-0.8,2.26-1.44c0.64-0.63,1.16-1.41,1.54-2.34c0.39-0.92,0.58-1.98,0.58-3.18
		c0-1.04-0.16-1.94-0.49-2.7c-0.33-0.76-0.75-1.42-1.26-1.97c-0.51-0.55-1.08-1.03-1.71-1.42c-0.63-0.39-1.25-0.74-1.86-1.04
		c-1.03-0.51-1.85-1.04-2.48-1.61c-0.63-0.56-0.95-1.37-0.95-2.41c0-0.6,0.09-1.12,0.26-1.56c0.17-0.44,0.41-0.8,0.72-1.07
		c0.3-0.28,0.64-0.48,1.01-0.61c0.37-0.13,0.76-0.19,1.16-0.19c1.38,0,2.52,0.54,3.43,1.63L80.34,104.2z"/>
	<path class="st0" d="M191.96,394.81c22.38,0,40.52-18.14,40.52-40.52c0-22.38-18.14-40.52-40.52-40.52
		c-22.38,0-40.52,18.14-40.52,40.52C151.45,376.67,169.59,394.81,191.96,394.81"/>
	<path class="st1" d="M207.27,352.35h-0.06v-3.19h-3.62v16.62h3.75v-8.34c0-0.63,0.07-1.25,0.2-1.86c0.13-0.61,0.33-1.15,0.59-1.63
		c0.26-0.48,0.58-0.86,0.95-1.16c0.37-0.29,0.79-0.44,1.27-0.44c0.28,0,0.54,0.03,0.78,0.1l0.19-3.78c-0.11-0.04-0.2-0.07-0.28-0.07
		h-0.28c-0.83,0-1.54,0.31-2.15,0.94C207.99,350.18,207.55,351.11,207.27,352.35 M199.02,365.77v-16.62h-3.68v9.61
		c0,1.26-0.24,2.3-0.73,3.11c-0.49,0.81-1.15,1.22-1.97,1.22c-0.43,0-0.79-0.1-1.06-0.31c-0.27-0.21-0.48-0.48-0.62-0.81
		c-0.14-0.34-0.23-0.71-0.28-1.12c-0.04-0.41-0.07-0.84-0.07-1.27v-10.43h-3.68v10.43c0,0.85,0.05,1.68,0.16,2.49
		c0.11,0.81,0.31,1.54,0.62,2.17c0.3,0.63,0.73,1.14,1.29,1.52c0.55,0.38,1.29,0.57,2.2,0.57c1.04,0,1.92-0.31,2.62-0.93
		c0.71-0.62,1.21-1.37,1.52-2.26h0.07v2.64H199.02z M183.93,365.77v-3.13h-6.29l6.26-10.53v-2.97h-9.71v3.13h5.8l-6.26,10.4v3.1
		H183.93z"/>
	<path class="st0" d="M187.97,250.94c18.92,0,34.25-14.95,34.25-33.4s-15.33-33.4-34.25-33.4c-18.91,0-34.25,14.96-34.25,33.4
		S169.06,250.94,187.97,250.94"/>
	<path class="st1" d="M202.4,215.59h-0.06v-2.89h-3.36v15.04h3.48v-7.55c0-0.57,0.06-1.13,0.18-1.68c0.12-0.55,0.3-1.04,0.54-1.47
		c0.24-0.43,0.53-0.78,0.88-1.05c0.34-0.27,0.74-0.4,1.18-0.4c0.26,0,0.5,0.03,0.73,0.09l0.18-3.42c-0.1-0.04-0.19-0.06-0.26-0.06
		h-0.26c-0.77,0-1.43,0.28-2,0.85C203.07,213.62,202.66,214.47,202.4,215.59 M187.86,218.65c0-0.35,0.05-0.75,0.15-1.19
		s0.25-0.85,0.44-1.24c0.19-0.38,0.44-0.7,0.76-0.96c0.31-0.25,0.69-0.38,1.13-0.38c0.77,0,1.33,0.35,1.69,1.05
		c0.36,0.7,0.54,1.61,0.54,2.73H187.86z M195.84,221.07v-1.27c0-1.08-0.1-2.08-0.3-3.01c-0.2-0.92-0.52-1.73-0.95-2.4
		c-0.43-0.68-1-1.21-1.69-1.61c-0.7-0.39-1.54-0.59-2.52-0.59c-0.89,0-1.69,0.19-2.4,0.58c-0.72,0.38-1.34,0.93-1.86,1.64
		c-0.52,0.71-0.93,1.56-1.21,2.55c-0.28,0.99-0.42,2.09-0.42,3.29c0,2.58,0.54,4.55,1.63,5.93c1.09,1.38,2.53,2.06,4.32,2.06
		c1.27,0,2.31-0.31,3.13-0.93c0.82-0.62,1.45-1.45,1.89-2.49l-2.51-1.42c-0.22,0.51-0.52,0.96-0.89,1.36
		c-0.37,0.39-0.87,0.59-1.5,0.59c-0.44,0-0.83-0.11-1.16-0.34c-0.33-0.23-0.62-0.53-0.85-0.91c-0.23-0.38-0.41-0.84-0.53-1.36
		c-0.12-0.52-0.18-1.08-0.18-1.67H195.84z M177.86,222.21c-0.11,0.62-0.27,1.16-0.48,1.62c-0.21,0.46-0.48,0.83-0.8,1.09
		c-0.32,0.27-0.71,0.4-1.15,0.4c-0.44,0-0.83-0.13-1.15-0.4c-0.32-0.27-0.59-0.63-0.79-1.09c-0.2-0.46-0.35-1-0.45-1.62
		c-0.1-0.62-0.15-1.28-0.15-1.99c0-0.73,0.05-1.4,0.15-2.02c0.1-0.62,0.25-1.16,0.45-1.62c0.2-0.46,0.46-0.83,0.79-1.09
		c0.32-0.27,0.7-0.4,1.15-0.4c0.42,0,0.8,0.13,1.13,0.4s0.6,0.63,0.82,1.09c0.21,0.46,0.37,1,0.48,1.62
		c0.11,0.62,0.17,1.29,0.17,2.02C178.03,220.92,177.98,221.59,177.86,222.21 M181.27,227.73v-22.29h-3.36v9.17h-0.09
		c-0.22-0.69-0.62-1.26-1.21-1.72c-0.59-0.46-1.3-0.69-2.15-0.69c-0.83,0-1.55,0.2-2.16,0.59c-0.61,0.39-1.13,0.94-1.56,1.64
		c-0.42,0.7-0.74,1.53-0.95,2.49c-0.21,0.96-0.32,2.01-0.32,3.15c0,1.16,0.11,2.24,0.33,3.23c0.22,0.99,0.54,1.86,0.97,2.59
		c0.42,0.74,0.95,1.31,1.57,1.73s1.33,0.62,2.12,0.62c1.01,0,1.78-0.26,2.31-0.77c0.53-0.51,0.91-1.14,1.13-1.89h0.06v2.15H181.27z"
		/>
</g>
</svg>
