<svg id="Ebene_1" data-name="Ebene 1" xmlns="http://www.w3.org/2000/svg" viewBox="0 0 84.11 72.44"><defs><style>.cls-1{fill:#223f65;}.cls-2{fill:#4a5a7d;}.cls-3{fill:#747b99;}</style></defs><path class="cls-1" d="M302.72,457a38.16,38.16,0,0,1-23.36-8l1.48-1.9a35.73,35.73,0,0,0,21.88,7.47c19.25,0,34.91-15.17,34.91-33.82S322,387,302.72,387a35.64,35.64,0,0,0-13.83,2.76L288,387.5a38.12,38.12,0,0,1,14.76-2.94c20.58,0,37.32,16.24,37.32,36.21S323.3,457,302.72,457" transform="translate(-255.92 -384.56)"/><path class="cls-2" d="M302.72,390.14a30.84,30.84,0,0,0-9.41,1.48,61.69,61.69,0,0,1,2.8,5.57,73.35,73.35,0,0,1,2.89,8.94c1,3.82,2.59,7.31,5.59,9.8,1.25,1,3.06,1.93,3.72,3.26.76,2.42-.81,2.62-2.42,3.39-2.6,1.24-3,2.6-.83,4.51,1.87,1.68,1.41,3.15-.36,4.09s-.45,1.45.06,1.87c1.43,1.17,1.32,2.26,0,3.33-2.2,1.81-2.86,4.05-2.66,6.89.2,3-1.4,4.73-4.42,5-2.55.2-7-.79-10.05-.82a30.63,30.63,0,1,0,15.08-57.28" transform="translate(-255.92 -384.56)"/><path class="cls-3" d="M275.79,434.67a26.69,26.69,0,0,1,.07-27.93l.93.58a25.58,25.58,0,0,0-.07,26.78Z" transform="translate(-255.92 -384.56)"/><path class="cls-1" d="M264.35,443.2a34.09,34.09,0,0,1,.27-45.19l1.66,1.43a31.89,31.89,0,0,0-.25,42.35Z" transform="translate(-255.92 -384.56)"/><path class="cls-2" d="M270.05,439.34a30.88,30.88,0,0,1,0-37.08l1.32,1a29.25,29.25,0,0,0,0,35.14Z" transform="translate(-255.92 -384.56)"/></svg>