<?xml version="1.0" encoding="utf-8"?>
<!-- Generator: Adobe Illustrator 25.3.0, SVG Export Plug-In . SVG Version: 6.00 Build 0)  -->
<svg version="1.1" id="Ebene_1" xmlns="http://www.w3.org/2000/svg" xmlns:xlink="http://www.w3.org/1999/xlink" x="0px" y="0px"
	 viewBox="0 0 90.54 75.69" style="enable-background:new 0 0 90.54 75.69;" xml:space="preserve">
<style type="text/css">
	.st0{fill:#FFFFFF;}
</style>
<g>
	<path class="st0" d="M50.01,74.07c-8.47,0-16.76-2.83-23.36-7.97l1.48-1.9c6.17,4.81,13.94,7.46,21.88,7.46
		c19.25,0,34.91-15.17,34.91-33.81c0-18.64-15.66-33.81-34.91-33.81c-4.8,0-9.46,0.93-13.83,2.76l-0.93-2.22
		c4.67-1.95,9.63-2.94,14.76-2.94c20.58,0,37.32,16.25,37.32,36.22C87.33,57.82,70.59,74.07,50.01,74.07"/>
	<path class="st0" d="M50.01,7.21c-3.29,0-6.44,0.53-9.41,1.49c0.97,1.84,2.03,3.65,2.8,5.57c1.17,2.9,2.1,5.91,2.89,8.94
		c0.99,3.83,2.59,7.31,5.59,9.8c1.24,1.03,3.06,1.94,3.71,3.26c0.77,2.42-0.81,2.62-2.42,3.39c-2.6,1.24-2.97,2.6-0.83,4.51
		c1.87,1.68,1.42,3.15-0.36,4.09c-1.79,0.94-0.45,1.45,0.07,1.88c1.43,1.17,1.32,2.26,0.01,3.33c-2.2,1.8-2.86,4.05-2.67,6.89
		c0.21,3.05-1.4,4.73-4.42,4.97c-2.55,0.2-7.02-0.79-10.05-0.82c4.46,2.53,9.6,3.99,15.08,3.99c16.92,0,30.64-13.72,30.64-30.64
		C80.65,20.93,66.94,7.21,50.01,7.21"/>
	<path class="st0" d="M23.08,51.74c-2.56-4.17-3.91-8.98-3.91-13.9c0-4.97,1.38-9.82,3.99-14.03l0.93,0.58
		c-2.5,4.03-3.82,8.68-3.82,13.45c0,4.72,1.3,9.33,3.75,13.33L23.08,51.74z"/>
	<path class="st0" d="M11.65,60.27c-5.52-6.55-8.43-14.31-8.43-22.43c0-8.27,3.01-16.13,8.7-22.75l1.66,1.43
		C8.23,22.73,5.4,30.11,5.4,37.84c0,7.6,2.74,14.87,7.92,21.03L11.65,60.27z"/>
	<path class="st0" d="M17.35,56.41c-4.06-5.49-6.2-11.91-6.2-18.56c0-6.64,2.13-13.04,6.17-18.52l1.32,0.97
		c-3.83,5.19-5.85,11.26-5.85,17.54c0,6.3,2.03,12.39,5.88,17.59L17.35,56.41z"/>
</g>
</svg>
